<?xml version="1.0" encoding="UTF-8"?>
<svg width="12px" height="12px" viewBox="0 0 12 12" version="1.1" xmlns="http://www.w3.org/2000/svg" xmlns:xlink="http://www.w3.org/1999/xlink">
    <!-- Generator: Sketch 51.3 (57544) - http://www.bohemiancoding.com/sketch -->
    <title>Combined Shape</title>
    <desc>Created with Sketch.</desc>
    <defs></defs>
    <g id="快速迭代第一周" stroke="none" stroke-width="1" fill="none" fill-rule="evenodd">
        <g id="海报弹窗" transform="translate(-343.000000, -161.000000)" fill="#A1A1A1" fill-rule="nonzero">
            <path d="M349,168.014924 L344.295252,172.775149 C343.998945,173.07495 343.518537,173.07495 343.22223,172.775149 C342.925923,172.475349 342.925923,171.989276 343.22223,171.689475 L347.857052,167 L343.22223,162.310525 C342.925923,162.010724 342.925923,161.524651 343.22223,161.224851 C343.518537,160.92505 343.998945,160.92505 344.295252,161.224851 L349,165.985076 L353.704748,161.224851 C354.001055,160.92505 354.481463,160.92505 354.77777,161.224851 C355.074077,161.524651 355.074077,162.010724 354.77777,162.310525 L350.142948,167 L354.77777,171.689475 C355.074077,171.989276 355.074077,172.475349 354.77777,172.775149 C354.481463,173.07495 354.001055,173.07495 353.704748,172.775149 L349,168.014924 Z" id="Combined-Shape"></path>
        </g>
    </g>
</svg>