<?xml version="1.0" encoding="UTF-8"?>
<svg width="18px" height="18px" viewBox="0 0 18 18" version="1.1" xmlns="http://www.w3.org/2000/svg" xmlns:xlink="http://www.w3.org/1999/xlink">
    <!-- Generator: Sketch 51.3 (57544) - http://www.bohemiancoding.com/sketch -->
    <title>Group 6</title>
    <desc>Created with Sketch.</desc>
    <defs>
        <linearGradient x1="100%" y1="50%" x2="0%" y2="57.7101819%" id="linearGradient-1">
            <stop stop-color="#485563" offset="0%"></stop>
            <stop stop-color="#29323C" offset="100%"></stop>
        </linearGradient>
    </defs>
    <g id="二期" stroke="none" stroke-width="1" fill="none" fill-rule="evenodd" opacity="0.449999988">
        <g id="活动-copy-2" transform="translate(-236.000000, -618.000000)">
            <g id="Group-6" transform="translate(236.000000, 618.000000)">
                <rect id="Rectangle-4" fill="url(#linearGradient-1)" x="0" y="0" width="18" height="18" rx="6"></rect>
                <g id="Group-3" transform="translate(5.000000, 3.000000)" fill="#FFFFFF" fill-rule="nonzero">
                    <rect id="Rectangle-20" x="3" y="0" width="2" height="6" rx="0.5"></rect>
                    <rect id="Rectangle-20" transform="translate(4.000000, 10.500000) rotate(-90.000000) translate(-4.000000, -10.500000) " x="3.5" y="6.5" width="1" height="8" rx="0.5"></rect>
                    <path d="M4.37030645,5.40815701 L7.24155758,8.57289063 C7.42710646,8.77740523 7.4117317,9.09361417 7.2072171,9.27916305 C7.11522525,9.362624 6.99546156,9.4088566 6.87125113,9.4088566 L1.12874887,9.4088566 C0.852606497,9.4088566 0.628748872,9.18499898 0.628748872,8.9088566 C0.628748872,8.78464617 0.674981469,8.66488247 0.758442424,8.57289063 L3.62969355,5.40815701 C3.81524243,5.2036424 4.13145137,5.18826765 4.33596597,5.37381653 C4.34796228,5.38470036 4.35942262,5.3961607 4.37030645,5.40815701 Z" id="Polygon" transform="translate(4.000000, 7.204428) scale(-1, -1) translate(-4.000000, -7.204428) "></path>
                </g>
            </g>
        </g>
    </g>
</svg>