<?xml version="1.0" encoding="UTF-8"?>
<svg width="15px" height="15px" viewBox="0 0 15 15" version="1.1" xmlns="http://www.w3.org/2000/svg" xmlns:xlink="http://www.w3.org/1999/xlink">
    <!-- Generator: Sketch 51.3 (57544) - http://www.bohemiancoding.com/sketch -->
    <title>Group 4</title>
    <desc>Created with Sketch.</desc>
    <defs></defs>
    <g id="快速迭代第一周" stroke="none" stroke-width="1" fill="none" fill-rule="evenodd">
        <g id="收益-默认" transform="translate(-76.000000, -259.000000)" stroke="#7C8486">
            <g id="Group-4" transform="translate(77.000000, 260.000000)">
                <circle id="Oval-5" stroke-width="0.5" opacity="0.5" cx="6.5" cy="6.5" r="6.5"></circle>
                <path d="M7.09,3.53 C7.09,3.6833341 7.03833385,3.81166615 6.935,3.915 C6.83166615,4.01833385 6.7033341,4.07 6.55,4.07 C6.4033326,4.07 6.2766672,4.0166672 6.17,3.91 C6.0633328,3.8033328 6.01,3.6766674 6.01,3.53 C6.01,3.3766659 6.06166615,3.2500005 6.165,3.15 C6.26833385,3.0499995 6.3966659,3 6.55,3 C6.7033341,3 6.83166615,3.0499995 6.935,3.15 C7.03833385,3.2500005 7.09,3.3766659 7.09,3.53 Z M7.65,9.94 L5.5,9.94 L5.5,9.84 C5.5800004,9.8333333 5.6599996,9.82500005 5.74,9.815 C5.8200004,9.80499995 5.89166635,9.78833345 5.955,9.765 C6.01833365,9.74166655 6.07166645,9.7100002 6.115,9.67 C6.15833355,9.6299998 6.18,9.5800003 6.18,9.52 L6.18,6.09 C6.18,6.0366664 6.17500005,5.9900002 6.165,5.95 C6.15499995,5.9099998 6.1266669,5.8733335 6.08,5.84 C6.0199997,5.7999998 5.94833375,5.7600002 5.865,5.72 C5.78166625,5.6799998 5.6933338,5.6433335 5.6,5.61 L5.6,5.55 L6.95,5.11 L7.01,5.11 L7.01,9.58 C7.0233334,9.646667 7.05166645,9.69499985 7.095,9.725 C7.13833355,9.75500015 7.1899997,9.7766666 7.25,9.79 C7.3100003,9.8033334 7.37499965,9.81166665 7.445,9.815 C7.51500035,9.81833335 7.583333,9.8266666 7.65,9.84 L7.65,9.94 Z" id="i" stroke-width="0.2" fill="#7C8486"></path>
            </g>
        </g>
    </g>
</svg>