<?xml version="1.0" encoding="UTF-8"?>
<svg width="150px" height="102px" viewBox="0 0 150 102" version="1.1" xmlns="http://www.w3.org/2000/svg" xmlns:xlink="http://www.w3.org/1999/xlink">
    <!-- Generator: Sketch 51.3 (57544) - http://www.bohemiancoding.com/sketch -->
    <title>Group 5</title>
    <desc>Created with Sketch.</desc>
    <defs></defs>
    <g id="1.5.1---2" stroke="none" stroke-width="1" fill="none" fill-rule="evenodd">
        <g id="总没" transform="translate(-113.000000, -387.000000)" fill-rule="nonzero">
            <g id="Group-5" transform="translate(113.000000, 388.000000)">
                <g id="**第二周" transform="translate(75.000000, 77.500000) rotate(-360.000000) translate(-75.000000, -77.500000) translate(0.000000, 54.000000)">
                    <ellipse id="Oval-4" fill="#EEEEEE" cx="75" cy="42.14" rx="30.25" ry="4.5"></ellipse>
                    <path d="M6,21.53 C4.85,22.18 3.69,22.85 2.53,23.53 L3,24.4 C4.16,23.71 5.31,23.04 6.45,22.4 L6,21.53 Z M13.13,17.83 C11.94,18.4 10.74,19 9.54,19.62 L10,20.51 C11.2,19.89 12.38,19.3 13.56,18.74 L13.13,17.83 Z M20.52,14.65 C19.29,15.12 18.05,15.65 16.8,16.17 L17.2,17.09 C18.43,16.55 19.66,16.09 20.88,15.58 L20.52,14.65 Z M28.16,12.12 C26.89,12.47 25.6,12.86 24.31,13.29 L24.63,14.24 C25.9,13.82 27.17,13.43 28.43,13.08 L28.16,12.12 Z M36,10.39 C34.6666667,10.5966667 33.3333333,10.8466667 32,11.14 L32.21,12.14 C33.5433333,11.8466667 34.8433333,11.5966667 36.11,11.39 L36,10.39 Z M44,9.64 C42.67,9.64 41.33,9.75 40,9.88 L40.1,10.88 C41.4333333,10.7533333 42.7666667,10.6733333 44.1,10.64 L44,9.64 Z M48,9.7 L47.94,10.7 C49.24,10.78 50.55,10.92 51.88,11.11 L52.02,10.11 C50.75,9.93 49.41,9.78 48.08,9.7 L48,9.7 Z M56,10.86 L55.79,11.86 C57.04,12.14 58.32,12.46 59.64,12.86 L59.91,11.86 C58.66,11.46 57.36,11.13 56.09,10.86 L56,10.86 Z M63.85,13 L63.54,14 C64.54,14.31 65.54,14.66 66.61,15 L67.31,15.24 L67.52,14.67 L67.65,14.3 C66.3,13.81 65.05,13.38 63.85,13 Z M73.85,16.59 L72.78,16.19 L71.4,15.68 L71.06,16.61 L72.43,17.13 L73.5,17.53 L74.8,18.01 L75.15,17.08 L73.85,16.59 Z M78.85,18.45 L78.51,19.39 C79.87,19.88 81.11,20.31 82.3,20.71 L82.61,19.71 C81.49,19.36 80.26,18.93 78.91,18.44 L78.85,18.45 Z M86.48,21 L86.2,22 C87.54,22.39 88.83,22.74 90.09,23 L90.32,22 C89.08,21.68 87.8,21.34 86.48,21 Z M94.23,22.83 L94.06,23.83 C95.42,24.06 96.75,24.24 98.06,24.36 L98.15,23.36 C96.87,23.18 95.56,23 94.23,22.78 L94.23,22.83 Z M106.05,23.39 C104.71,23.48 103.39,23.52 102.05,23.52 L102.05,24.52 C103.36,24.52 104.7,24.52 106.05,24.39 L106.05,23.39 Z M113.93,22.39 C112.6,22.63 111.29,22.83 110.01,23 L110.13,24 C111.43,23.83 112.76,23.63 114.13,23.39 L113.93,22.39 Z M121.7,20.64 C120.366667,20.9933333 119.076667,21.3266667 117.83,21.64 L118.05,22.64 C119.34,22.35 120.64,22.02 121.96,21.64 L121.7,20.64 Z M129.32,18.29 C128.04,18.73 126.78,19.15 125.53,19.53 L125.83,20.53 C127.09,20.14 128.36,19.72 129.65,19.28 L129.32,18.29 Z M136.8,15.48 C135.55,15.99 134.31,16.48 133.09,16.94 L133.44,17.87 C134.67,17.41 135.92,16.87 137.18,16.41 L136.8,15.48 Z M144.09,12.32 C142.87,12.88 141.65,13.42 140.45,13.94 L140.85,14.86 C142.06,14.34 143.28,13.79 144.51,13.22 L144.09,12.32 Z M149.53,9.71 C148.92,10.02 148.32,10.32 147.71,10.61 L148.15,11.51 L149.98,10.61 L149.53,9.71 Z" id="Path-5" fill="#E2E2E2"></path>
                    <path d="M129.56,30.58 L130.94,30.58 C131.156069,30.5509315 131.369368,30.6499047 131.486681,30.8336667 C131.603994,31.0174287 131.603994,31.2525713 131.486681,31.4363333 C131.369368,31.6200953 131.156069,31.7190685 130.94,31.69 L129.56,31.69 L129.56,33.08 C129.56,33.3892795 129.309279,33.64 129,33.64 C128.690721,33.64 128.44,33.3892795 128.44,33.08 L128.44,31.69 L127.06,31.69 C126.843931,31.7190685 126.630632,31.6200953 126.513319,31.4363333 C126.396006,31.2525713 126.396006,31.0174287 126.513319,30.8336667 C126.630632,30.6499047 126.843931,30.5509315 127.06,30.58 L128.44,30.58 L128.44,29.19 C128.44,28.8807205 128.690721,28.63 129,28.63 C129.309279,28.63 129.56,28.8807205 129.56,29.19 L129.56,30.58 Z" id="Combined-Shape-2" fill="#E2E2E2"></path>
                    <path d="M4.5,3.14 L6,3.14 C6.55228475,3.14 7,3.58771525 7,4.14 C7,4.69228475 6.55228475,5.14 6,5.14 L4.5,5.14 L4.5,6.64 C4.5,7.19228475 4.05228475,7.64 3.5,7.64 C2.94771525,7.64 2.5,7.19228475 2.5,6.64 L2.5,5.14 L1,5.14 C0.44771525,5.14 6.76353751e-17,4.69228475 0,4.14 C-6.76353751e-17,3.58771525 0.44771525,3.14 1,3.14 L2.5,3.14 L2.5,1.64 C2.5,1.08771525 2.94771525,0.64 3.5,0.64 C4.05228475,0.64 4.5,1.08771525 4.5,1.64 L4.5,3.14 Z" id="Combined-Shape-Copy" fill="#E2E2E2"></path>
                    <path d="M17,27.64 C15.6192881,27.64 14.5,28.7592881 14.5,30.14 C14.5,31.5207119 15.6192881,32.64 17,32.64 C18.3807119,32.64 19.5,31.5207119 19.5,30.14 C19.5,28.7592881 18.3807119,27.64 17,27.64 Z M17,31.57 C16.2102328,31.57 15.57,30.9297672 15.57,30.14 C15.57,29.3502328 16.2102328,28.71 17,28.71 C17.7897672,28.71 18.43,29.3502328 18.43,30.14 C18.43,30.9297672 17.7897672,31.57 17,31.57 Z" id="Oval-6" fill="#E2E2E2"></path>
                    <path d="M135.5,1.64 C133.843146,1.64 132.5,2.98314575 132.5,4.64 C132.5,6.29685425 133.843146,7.64 135.5,7.64 C137.156854,7.64 138.5,6.29685425 138.5,4.64 C138.5,2.98314575 137.156854,1.64 135.5,1.64 Z M135.5,6.35 C134.555593,6.35 133.79,5.58440692 133.79,4.64 C133.79,3.69559308 134.555593,2.93 135.5,2.93 C136.444407,2.93 137.21,3.69559308 137.21,4.64 C137.212681,5.09433664 137.033381,5.530841 136.712111,5.85211111 C136.390841,6.17338123 135.954337,6.35268052 135.5,6.35 Z" id="Oval-6-Copy-2" fill="#E2E2E2"></path>
                </g>
                <g id="Group-13" transform="translate(37.000000, 0.000000)">
                    <circle id="Oval-4" stroke="#E2E2E2" stroke-width="1.5" fill="#F9F9F9" cx="37.5" cy="37.5" r="37.5"></circle>
                    <path d="M5.74579762,57.4571834 C12.1174543,62.4564827 20.1481002,65.4375 28.875,65.4375 C49.5856781,65.4375 66.375,48.6481781 66.375,27.9375 C66.375,20.6027406 64.2692042,13.7598161 60.6292024,7.98031657 C69.378761,14.8453541 75,25.5162217 75,37.5 C75,58.2106781 58.2106781,75 37.5,75 C24.1240813,75 12.3838296,67.9968769 5.74579762,57.4571834 Z" id="Combined-Shape" fill="#F1F1F1"></path>
                    <path d="M40.995834,50.048758 L39.1137312,44.8729752 L31.2716361,47.7274979 C30.6756368,47.9470765 29.8600589,47.241288 29.703217,46.6766571 C29.5463751,46.1120263 29.703217,45.1082381 30.2835321,44.9043436 L38.1256272,42.0341368 L37.0120497,38.9914039 L29.1699546,41.8616107 C28.5739553,42.0811894 27.7583775,41.3597166 27.6015355,40.7950858 C27.4446936,40.2304549 27.6015355,39.2266667 28.1818506,39.0227723 L33.2792124,37.1720378 L24.0255402,32.9373064 C23.1629097,32.4667807 24.0255402,30.9610985 25.0920651,30.5689937 C25.4157012,30.4206553 25.7879013,30.4206553 26.1115375,30.5689937 L37.4041545,35.6349872 L42.7524633,24.4992121 C42.9922801,24.0830396 43.3869405,23.7785873 43.8503567,23.6522658 C44.6973029,23.5111081 46.1245643,23.997318 45.7638279,24.8913168 L41.4663597,34.050884 L46.5480374,32.2001495 C47.1440366,31.9805708 47.9282461,32.6079385 48.1164564,33.1725693 C48.3046667,33.7372002 48.1164564,34.7409883 47.5675098,35.0233038 L39.8665723,37.8307738 L40.9801498,40.9676119 L48.822245,38.1287734 C49.4182442,37.9091948 50.1867695,38.5365624 50.390664,39.1011932 C50.5945585,39.6658241 50.390664,40.7480332 49.8417173,40.9676119 L41.9996222,43.7907661 L43.881725,48.9665489 C44.0421585,49.7429955 43.5979105,50.517064 42.8465685,50.7702308 C42.50576,50.9224014 42.1182056,50.931749 41.7704571,50.796186 C41.4227086,50.6606231 41.1437332,50.3914418 40.995834,50.048758 Z" id="Shape" stroke="#E2E2E2" stroke-width="0.5" fill="#DDDDDD" transform="translate(37.070653, 37.259819) rotate(20.000000) translate(-37.070653, -37.259819) "></path>
                    <circle id="Oval-4" stroke="#E2E2E2" stroke-width="1.5" cx="37.5" cy="37.5" r="37.5"></circle>
                </g>
            </g>
        </g>
    </g>
</svg>