<svg xmlns="http://www.w3.org/2000/svg" viewBox="0 0 149.98 100.64"><defs><style>.cls-1{fill:#eee;}.cls-2,.cls-5{fill:#ddd;}.cls-3{fill:#fdfdfd;}.cls-3,.cls-4{stroke:#e5e5e5;stroke-width:1.5px;}.cls-4{fill:#f3f3f3;}.cls-5{stroke:#ddd;stroke-width:0.5px;}.cls-6{fill:#e5e5e5;}</style></defs><title>**第二周</title><g id="图层_2" data-name="图层 2"><g id="图层_1-2" data-name="图层 1"><g id="_第二周" data-name="**第二周"><g id="收益"><g id="Group-14"><g id="Group-13"><ellipse id="Oval-4" class="cls-1" cx="75" cy="96.14" rx="58.5" ry="4.5"/><path id="Path-5" class="cls-2" d="M6,75.53c-1.15.65-2.31,1.32-3.47,2L3,78.4c1.16-.69,2.31-1.36,3.45-2Zm7.13-3.7c-1.19.57-2.39,1.17-3.59,1.79l.46.89c1.2-.62,2.38-1.21,3.56-1.77Zm7.39-3.18c-1.23.47-2.47,1-3.72,1.52l.4.92c1.23-.54,2.46-1,3.68-1.51Zm7.64-2.53c-1.27.35-2.56.74-3.85,1.17l.32.95c1.27-.42,2.54-.81,3.8-1.16ZM36,64.39q-2,.31-4,.75l.21,1q2-.44,3.9-.75Zm8-.75c-1.33,0-2.67.11-4,.24l.1,1q2-.19,4-.24Zm4,.06-.06,1c1.3.08,2.61.22,3.94.41l.14-1C50.75,63.93,49.41,63.78,48.08,63.7Zm8,1.16-.21,1c1.25.28,2.53.6,3.85,1l.27-1C58.66,65.46,57.36,65.13,56.09,64.86ZM63.85,67l-.31,1c1,.31,2,.66,3.07,1l.7.24.21-.57.13-.37C66.3,67.81,65.05,67.38,63.85,67Zm10,3.59-1.07-.4-1.38-.51-.34.93,1.37.52,1.07.4,1.3.48.35-.93Zm5,1.86-.34.94c1.36.49,2.6.92,3.79,1.32l.31-1C81.49,73.36,80.26,72.93,78.91,72.44ZM86.48,75l-.28,1c1.34.39,2.63.74,3.89,1l.23-1C89.08,75.68,87.8,75.34,86.48,75Zm7.75,1.83-.17,1c1.36.23,2.69.41,4,.53l.09-1C96.87,77.18,95.56,77,94.23,76.78Zm11.82.56c-1.34.09-2.66.13-4,.13h0v1h0c1.31,0,2.65,0,4-.13Zm7.88-1c-1.33.24-2.64.44-3.92.61l.12,1c1.3-.17,2.63-.37,4-.61Zm7.77-1.75q-2,.53-3.87,1l.22,1c1.29-.29,2.59-.62,3.91-1Zm7.62-2.35c-1.28.44-2.54.86-3.79,1.24l.3,1c1.26-.39,2.53-.81,3.82-1.25Zm7.48-2.81c-1.25.51-2.49,1-3.71,1.46l.35.93c1.23-.46,2.48-1,3.74-1.46Zm7.29-3.16c-1.22.56-2.44,1.1-3.64,1.62l.4.92c1.21-.52,2.43-1.07,3.66-1.64Zm5.44-2.61c-.61.31-1.21.61-1.82.9l.44.9,1.83-.9Z"/><path id="Combined-Shape" class="cls-3" d="M30.63,59.46A5,5,0,0,1,34,68.78l2.77,7.6a3.25,3.25,0,0,0,4.16,2l77.06-28A3.25,3.25,0,0,0,120,46.12l-2.83-7.76a5,5,0,0,1-3.28-9L104.21,2.89A3.23,3.23,0,0,0,100.05,1L23,29a3.26,3.26,0,0,0-1.94,4.17Z"/><path class="cls-4" d="M112.46,35.81h0a5,5,0,0,0,4.67,2.58h0L120,46.12l.4,1.09a2.11,2.11,0,0,1-1.27,2.68l-1.06.39L67.52,68.66l-.91.33L41,78.33l-1.07.39a2.1,2.1,0,0,1-2.7-1.24l-.39-1.09L34,68.82a5,5,0,0,0,2.55-5.31"/><path id="Shape" class="cls-5" d="M69.82,39l-1.2-3.3-5,1.82c-.38.14-.9-.31-1-.67s0-1,.37-1.13l5-1.83-.71-1.94-5,1.83c-.38.14-.9-.32-1-.68s0-1,.37-1.13l3.25-1.18L59,28.09c-.55-.3,0-1.26.68-1.51a.78.78,0,0,1,.65,0l7.2,3.23,3.41-7.1a1.16,1.16,0,0,1,.7-.54c.54-.09,1.45.22,1.22.79l-2.74,5.84,3.24-1.18c.38-.14.88.26,1,.62s0,1-.35,1.18l-4.91,1.79.71,2,5-1.81c.38-.14.87.26,1,.62s0,1.05-.35,1.19l-5,1.8,1.2,3.3A1,1,0,0,1,71,39.46.89.89,0,0,1,69.82,39Z"/><path id="Combined-Shape-2" data-name="Combined-Shape" class="cls-6" d="M129.56,84.58h1.38a.56.56,0,1,1,0,1.11h-1.38v1.39a.56.56,0,0,1-1.12,0V85.69h-1.38a.56.56,0,1,1,0-1.11h1.38V83.19a.56.56,0,0,1,1.12,0Z"/><path id="Combined-Shape-Copy" class="cls-6" d="M4.5,57.14H6a1,1,0,0,1,0,2H4.5v1.5a1,1,0,0,1-2,0v-1.5H1a1,1,0,0,1,0-2H2.5v-1.5a1,1,0,0,1,2,0Z"/><path id="Oval-6" class="cls-6" d="M17,81.64a2.5,2.5,0,1,0,2.5,2.5A2.5,2.5,0,0,0,17,81.64Zm0,3.93a1.43,1.43,0,1,1,1.43-1.43A1.43,1.43,0,0,1,17,85.57Z"/><path id="Oval-6-Copy-2" class="cls-6" d="M135.5,55.64a3,3,0,1,0,3,3A3,3,0,0,0,135.5,55.64Zm0,4.71a1.71,1.71,0,1,1,1.71-1.71A1.7,1.7,0,0,1,135.5,60.35Z"/></g></g></g></g></g></g></svg>