<svg xmlns="http://www.w3.org/2000/svg" viewBox="0 0 15 15"><defs><style>.cls-1{fill:#25272a;}</style></defs><title>1.7</title><g id="图层_2" data-name="图层 2"><g id="图层_1-2" data-name="图层 1"><g id="_1.7" data-name="1.7"><g id="活动页面-copy-3"><path id="Combined-Shape" class="cls-1" d="M1,1V5.8H5.8V1ZM1,0H5.8a1,1,0,0,1,1,1V5.8a1,1,0,0,1-1,1H1a1,1,0,0,1-1-1V1A1,1,0,0,1,1,0ZM3.39,2.66a.73.73,0,0,1,.72.73.72.72,0,0,1-.72.72.73.73,0,0,1-.73-.72A.73.73,0,0,1,3.39,2.66ZM1,9.2V14H5.8V9.2Zm0-1H5.8a1,1,0,0,1,1,1V14a1,1,0,0,1-1,1H1a1,1,0,0,1-1-1V9.2A1,1,0,0,1,1,8.22Zm2.42,2.66a.73.73,0,0,1,0,1.46.73.73,0,1,1,0-1.46Zm8.46,2.67a.73.73,0,0,1,.73.72.73.73,0,0,1-.73.73.73.73,0,0,1-.72-.73A.72.72,0,0,1,11.85,13.55Zm2.42,0a.73.73,0,0,1,.73.72.73.73,0,0,1-.73.73.73.73,0,0,1-.72-.73A.72.72,0,0,1,14.27,13.55Zm-5.08,1a.48.48,0,0,1-.48.49.49.49,0,0,1-.49-.49V9.68A1.46,1.46,0,0,1,9.68,8.22h1A1.46,1.46,0,0,1,12.1,9.68v1a.49.49,0,0,0,.48.48h1a.49.49,0,0,0,.49-.48V8.71a.48.48,0,0,1,.48-.49.49.49,0,0,1,.49.49v1.93a1.46,1.46,0,0,1-1.46,1.46h-1a1.47,1.47,0,0,1-1.46-1.46v-1a.49.49,0,0,0-.48-.49h-1a.49.49,0,0,0-.49.49ZM9.2,1V5.8H14V1Zm0-1H14a1,1,0,0,1,1,1V5.8a1,1,0,0,1-1,1H9.2a1,1,0,0,1-1-1V1A1,1,0,0,1,9.2,0Zm2.41,2.66a.73.73,0,0,1,.73.73.73.73,0,0,1-1.46,0A.73.73,0,0,1,11.61,2.66Z"/></g></g></g></g></svg>