<?xml version="1.0" encoding="UTF-8"?>
<svg width="17px" height="12px" viewBox="0 0 17 12" version="1.1" xmlns="http://www.w3.org/2000/svg" xmlns:xlink="http://www.w3.org/1999/xlink">
    <!-- Generator: Sketch 51.3 (57544) - http://www.bohemiancoding.com/sketch -->
    <title>Group 5</title>
    <desc>Created with Sketch.</desc>
    <defs></defs>
    <g id="快速迭代第一周" stroke="none" stroke-width="1" fill="none" fill-rule="evenodd">
        <g id="收益-默认" transform="translate(-282.000000, -345.000000)" fill="#25272A" fill-rule="nonzero">
            <g id="Group-10" transform="translate(273.000000, 337.000000)">
                <g id="Group-5" transform="translate(9.000000, 8.500000)">
                    <path d="M9.00138515,8.52446875 C9.01088625,8.22546542 9.2609785,7.9907775 9.55998182,8.0002786 C9.85898514,8.00977969 10.0936731,8.25987194 10.084172,8.55887527 C10.083474,8.58522637 10.083474,8.58522637 10.0833333,8.61175149 C10.0833333,9.50921421 10.8108706,10.2367515 11.7083333,10.2367515 C12.2995789,10.2367515 12.8347019,9.91875613 13.1219995,9.41386992 C13.269952,9.15386356 13.600668,9.06302597 13.8606744,9.2109785 C14.1206807,9.35893102 14.2115183,9.68964704 14.0635658,9.94965341 C13.5855532,10.7896952 12.693013,11.3200848 11.7083333,11.3200848 C10.2125621,11.3200848 9,10.1075227 9,8.61175149 C9.00023182,8.56801753 9.00023182,8.56801753 9.00138515,8.52446875 Z" id="Oval-3" transform="translate(11.567271, 9.660042) scale(-1, 1) translate(-11.567271, -9.660042) "></path>
                    <path d="M6.26040663,4.13369916 C6.03159852,4.20263655 5.875,4.41336976 5.875,4.65233736 L5.875,6.26432931 C5.875,6.50329691 6.03159852,6.71403011 6.26040663,6.7829675 L14.9270733,9.39413972 C14.977755,9.40940957 15.0304013,9.41716819 15.0833333,9.41716819 C15.3824876,9.41716819 15.625,9.17465576 15.625,8.87550152 L15.625,2.04116515 C15.625,1.98823307 15.6172414,1.93558682 15.6019715,1.88490511 C15.5156715,1.59846914 15.2135093,1.43622691 14.9270733,1.52252695 L6.26040663,4.13369916 Z M5.94788656,3.09642277 L14.6145532,0.485250556 C15.4738611,0.22635045 16.3803478,0.713077136 16.6392479,1.57238504 C16.6850575,1.72443018 16.7083333,1.88236892 16.7083333,2.04116515 L16.7083333,8.87550152 C16.7083333,9.77296424 15.9807961,10.5005015 15.0833333,10.5005015 C14.9245371,10.5005015 14.7665984,10.4772257 14.6145532,10.4314161 L5.94788656,7.8202439 C5.26146224,7.61343173 4.79166667,6.98123211 4.79166667,6.26432931 L4.79166667,4.65233736 C4.79166667,3.93543456 5.26146224,3.30323494 5.94788656,3.09642277 Z" id="Rectangle-4" transform="translate(10.750000, 5.458119) scale(-1, 1) translate(-10.750000, -5.458119) "></path>
                    <path d="M1.4704243,5.84479521 C1.17127006,5.84479521 0.928757637,5.60228278 0.928757637,5.30312854 C0.928757637,5.0039743 1.17127006,4.76146187 1.4704243,4.76146187 L2.91486875,4.76146187 C3.21402299,4.76146187 3.45653541,5.0039743 3.45653541,5.30312854 C3.45653541,5.60228278 3.21402299,5.84479521 2.91486875,5.84479521 L1.4704243,5.84479521 Z" id="Path-5" transform="translate(2.192647, 5.303129) scale(-1, 1) translate(-2.192647, -5.303129) "></path>
                    <path d="M1.81712602,2.63045571 C1.55894182,2.78156553 1.22714346,2.69476459 1.07603364,2.43658039 C0.924923824,2.17839619 1.01172476,1.84659783 1.26990896,1.69548801 L2.56816703,0.935644691 C2.82635123,0.784534873 3.15814959,0.87133581 3.30925941,1.12952001 C3.46036923,1.38770421 3.37356829,1.71950257 3.11538409,1.87061239 L1.81712602,2.63045571 Z" id="Path-5" transform="translate(2.192647, 1.783050) scale(-1, 1) translate(-2.192647, -1.783050) "></path>
                    <path d="M1.81712602,9.56378905 C1.55894182,9.71489886 1.22714346,9.62809793 1.07603364,9.36991373 C0.924923824,9.11172952 1.01172476,8.77993116 1.26990896,8.62882135 L2.56816703,7.86897802 C2.82635123,7.71786821 3.15814959,7.80466914 3.30925941,8.06285334 C3.46036923,8.32103755 3.37356829,8.65283591 3.11538409,8.80394572 L1.81712602,9.56378905 Z" id="Path-5"></path>
                </g>
            </g>
        </g>
    </g>
</svg>