<?xml version="1.0" encoding="UTF-8"?>
<svg width="22px" height="19px" viewBox="0 0 22 19" version="1.1" xmlns="http://www.w3.org/2000/svg" xmlns:xlink="http://www.w3.org/1999/xlink">
    <!-- Generator: Sketch 51.3 (57544) - http://www.bohemiancoding.com/sketch -->
    <title>Group 5</title>
    <desc>Created with Sketch.</desc>
    <defs>
        <linearGradient x1="100%" y1="50%" x2="0%" y2="57.7101819%" id="linearGradient-1">
            <stop stop-color="#485563" offset="0%"></stop>
            <stop stop-color="#29323C" offset="100%"></stop>
        </linearGradient>
        <linearGradient x1="100%" y1="50%" x2="-47.4993389%" y2="50%" id="linearGradient-2">
            <stop stop-color="#485563" offset="0%"></stop>
            <stop stop-color="#29323C" offset="100%"></stop>
        </linearGradient>
    </defs>
    <g id="二期" stroke="none" stroke-width="1" fill="none" fill-rule="evenodd" opacity="0.5">
        <g id="活动-copy-2" transform="translate(-47.000000, -618.000000)">
            <g id="Group-5" transform="translate(47.000000, 618.000000)">
                <path d="M7.5,13 C6.5677624,13 5.67525044,12.8525924 4.85180322,12.5832045 C4.44733612,12.4508844 2.9745373,13.9407839 2.60687293,13.7526179 C2.32821026,13.6100019 3.14611162,11.8005617 2.8921015,11.6289077 C1.13193621,10.4394301 0,8.58427879 0,6.5 C0,2.91014913 3.35786438,0 7.5,0 C11.6421356,0 15,2.91014913 15,6.5 C15,10.0898509 11.6421356,13 7.5,13 Z M5,5.5 C5.55228475,5.5 6,5.05228475 6,4.5 C6,3.94771525 5.55228475,3.5 5,3.5 C4.44771525,3.5 4,3.94771525 4,4.5 C4,5.05228475 4.44771525,5.5 5,5.5 Z M10,5.5 C10.5522847,5.5 11,5.05228475 11,4.5 C11,3.94771525 10.5522847,3.5 10,3.5 C9.44771525,3.5 9,3.94771525 9,4.5 C9,5.05228475 9.44771525,5.5 10,5.5 Z M12.3,10.5 C12.5761424,10.5 12.8,10.2761424 12.8,10 C12.8,9.72385763 12.5761424,9.5 12.3,9.5 C12.0238576,9.5 11.8,9.72385763 11.8,10 C11.8,10.2761424 12.0238576,10.5 12.3,10.5 Z" id="Combined-Shape" fill="url(#linearGradient-1)"></path>
                <path d="M14.5,17.5166667 C13.6797722,17.5166667 12.8793149,17.3891158 12.1271634,17.143052 C12.1083129,17.1368851 11.8463868,17.2896866 11.3860585,17.6190239 L11.386045,17.6190336 C10.6071656,18.176275 10.4212934,18.2826856 10.1453928,18.1414832 C9.94122627,18.0369933 9.92815973,17.8547288 9.98156696,17.5522514 C10.0084921,17.3997584 10.0453773,17.2570981 10.1373191,16.9293423 C10.1377822,16.9276915 10.1377822,16.9276915 10.1382452,16.926041 C10.2383773,16.5690948 10.2989479,16.2398679 10.3665093,16.2855243 C8.7299841,15.1795996 7.75,13.4787541 7.75,11.6333333 C7.75,8.37547517 10.7793944,5.75 14.5,5.75 C18.2206056,5.75 21.25,8.37547517 21.25,11.6333333 C21.25,14.8911915 18.2206056,17.5166667 14.5,17.5166667 Z M12.3333333,10.5166667 C12.6739089,10.5166667 12.95,10.2405756 12.95,9.9 C12.95,9.5594244 12.6739089,9.28333333 12.3333333,9.28333333 C11.9927577,9.28333333 11.7166667,9.5594244 11.7166667,9.9 C11.7166667,10.2405756 11.9927577,10.5166667 12.3333333,10.5166667 Z M16.6666667,10.5166667 C17.0072423,10.5166667 17.2833333,10.2405756 17.2833333,9.9 C17.2833333,9.5594244 17.0072423,9.28333333 16.6666667,9.28333333 C16.3260911,9.28333333 16.05,9.5594244 16.05,9.9 C16.05,10.2405756 16.3260911,10.5166667 16.6666667,10.5166667 Z" id="Combined-Shape" stroke="#FFFFFF" stroke-width="0.5" fill="url(#linearGradient-2)" transform="translate(14.500000, 11.966601) scale(-1, 1) translate(-14.500000, -11.966601) "></path>
            </g>
        </g>
    </g>
</svg>